<svg width="20" height="18" viewBox="0 0 20 18" fill="none" xmlns="http://www.w3.org/2000/svg">
<path d="M5.44012 0C5.88448 0 6.29391 0.216899 6.50964 0.566584L8.00596 2.99243C8.20187 3.31006 8.2111 3.69424 8.03055 4.01918L6.58903 6.61397C6.58903 6.61397 7.00678 8.54691 8.7551 10.1204C10.5035 11.6939 12.644 12.0634 12.644 12.0634L15.5266 10.7662C15.8879 10.6036 16.315 10.612 16.6681 10.7887L19.3711 12.1412C19.7593 12.3355 20 12.7037 20 13.1034V15.8963C20 17.3185 18.5321 18.3458 17.0348 17.891C13.9595 16.9572 9.18582 15.179 6.16015 12.4559C3.13448 9.73275 1.15871 5.43644 0.121041 2.6687C-0.384187 1.32107 0.757191 0 2.33745 0H5.44012Z" fill="#EBE118"/>
</svg>
