<svg width="28" height="28" viewBox="0 0 28 28" fill="none" xmlns="http://www.w3.org/2000/svg">
<path d="M0 0H27.9123V27.9123H0V0Z" fill="white" fill-opacity="0.01"/>
<path fill-rule="evenodd" clip-rule="evenodd" d="M10.9628 5.30071C6.58366 8.11307 4.15089 11.3863 3.66442 15.1206C2.90709 20.9339 8.10587 23.7794 10.74 21.2228C13.3742 18.6662 11.7952 15.421 9.88778 14.534C7.98038 13.6469 6.81394 13.9559 7.01741 12.7705C7.22088 11.5851 9.93453 8.29857 12.3186 6.76799C12.4768 6.63348 12.5369 6.3725 12.3847 6.17456C12.2845 6.0443 12.088 5.78893 11.7952 5.40838C11.5391 5.0756 11.2939 5.08805 10.9628 5.30071Z" fill="#402929"/>
<path fill-rule="evenodd" clip-rule="evenodd" d="M22.492 5.30071C18.113 8.11307 15.6802 11.3863 15.1937 15.1206C14.4364 20.9339 19.6352 23.7794 22.2694 21.2228C24.9035 18.6662 23.3245 15.421 21.4171 14.534C19.5097 13.6469 18.3432 13.9559 18.5467 12.7705C18.7502 11.5851 21.4639 8.29857 23.8479 6.76799C24.0061 6.63348 24.0663 6.3725 23.9139 6.17456C23.8138 6.0443 23.6173 5.78893 23.3245 5.40838C23.0685 5.0756 22.8232 5.08805 22.492 5.30071Z" fill="#402929"/>
</svg>
